<svg xmlns="http://www.w3.org/2000/svg" width="20.809" height="17.194" viewBox="0 0 20.809 17.194">
  <g id="Tare" transform="translate(-15.338 -14.713)">
    <path id="Path_1" data-name="Path 1" d="M23.385,23.907a1,1,0,0,1-.626-.22l-5.385-4.323a1,1,0,0,1,1.252-1.56L23.4,21.638l7.43-5.646-7.47-6.935-4.707,4.083a1,1,0,0,1-1.311-1.511l5.385-4.671a1,1,0,0,1,1.336.023l9,8.355a1,1,0,0,1-.075,1.529l-9,6.839A1,1,0,0,1,23.385,23.907Z" transform="translate(2.763 8)"/>
    <path id="Path_2" data-name="Path 2" d="M23.144,18.75H18a.75.75,0,0,1,0-1.5h5.144a.75.75,0,1,1,0,1.5Z" transform="translate(5.763 3.846)"/>
    <path id="Path_3" data-name="Path 3" d="M24,22.273a.75.75,0,0,1-.75-.75V18a.75.75,0,1,1,1.5,0v3.523A.75.75,0,0,1,24,22.273Z" transform="translate(2.263 4.994)"/>
    <path id="Path_7" data-name="Path 7" d="M1.943,0,3.535,2.518H0Z" transform="translate(22.281 21.679) rotate(90)"/>
    <path id="Path_7_-_Outline" data-name="Path 7 - Outline" d="M1.943,0,3.535,2.518H0Z" transform="translate(22.281 21.679) rotate(90)"/>
    <path id="Path_11" data-name="Path 11" d="M1.943,2.518,3.535,0H0Z" transform="translate(17.856 21.679) rotate(90)"/>
    <path id="Path_11_-_Outline" data-name="Path 11 - Outline" d="M1.943,2.518,0,0H3.535Z" transform="translate(17.856 21.679) rotate(90)"/>
    <path id="Path_4" data-name="Path 4" d="M10.528,24.5H8a.5.5,0,0,1,0-1h2.528a.5.5,0,0,1,0,1Z" transform="translate(9.597 -0.565)"/>
  </g>
</svg>
