<svg xmlns="http://www.w3.org/2000/svg" width="20" height="12" viewBox="0 0 20 12">
  <g id="Zero" transform="translate(-14.01 -17.5)">
    <path id="Polygon_3" data-name="Polygon 3" d="M4.5,0,9,7H0Z" transform="translate(21.01 19.5) rotate(90)"/>
    <path id="Polygon_6" data-name="Polygon 6" d="M4.5,0,9,7H0Z" transform="translate(27.01 28.5) rotate(-90)"/>
    <path id="Ellipse_1" data-name="Ellipse 1" d="M4,1.6C2.867,1.6,1.6,3.482,1.6,6S2.867,10.4,4,10.4,6.4,8.518,6.4,6,5.133,1.6,4,1.6M4,0C6.209,0,8,2.686,8,6s-1.791,6-4,6S0,9.314,0,6,1.791,0,4,0Z" transform="translate(20.01 17.5)"/>
  </g>
</svg>
