<svg xmlns="http://www.w3.org/2000/svg" width="21" height="12" viewBox="0 0 21 12">
  <g id="Zero" transform="translate(-14 -17.5)">
    <path id="Polygon_3" data-name="Polygon 3" d="M4.5,0,9,8H0Z" transform="translate(22 19.5) rotate(90)"/>
    <path id="Polygon_6" data-name="Polygon 6" d="M4.5,0,9,8H0Z" transform="translate(27 28.5) rotate(-90)"/>
    <path id="Ellipse_1" data-name="Ellipse 1" d="M4.5,2a2.137,2.137,0,0,0-1.582.957A5.158,5.158,0,0,0,2,6a5.158,5.158,0,0,0,.918,3.043A2.137,2.137,0,0,0,4.5,10a2.137,2.137,0,0,0,1.582-.957A5.158,5.158,0,0,0,7,6a5.158,5.158,0,0,0-.918-3.043A2.137,2.137,0,0,0,4.5,2m0-2C6.985,0,9,2.686,9,6s-2.015,6-4.5,6S0,9.314,0,6,2.015,0,4.5,0Z" transform="translate(20 17.5)"/>
  </g>
</svg>
